<svg width="26" height="26" viewBox="0 0 26 26" fill="none" xmlns="http://www.w3.org/2000/svg">
<path d="M13 11.75C12.3125 11.75 11.75 12.3125 11.75 13C11.75 13.6875 12.3125 14.25 13 14.25C13.6875 14.25 14.25 13.6875 14.25 13C14.25 12.3125 13.6875 11.75 13 11.75ZM13 0.5C6.1 0.5 0.5 6.1 0.5 13C0.5 19.9 6.1 25.5 13 25.5C19.9 25.5 25.5 19.9 25.5 13C25.5 6.1 19.9 0.5 13 0.5ZM15.325 15.925L7.05 19.775C6.525 20.025 5.975 19.475 6.225 18.95L10.075 10.675C10.2 10.4125 10.4125 10.1875 10.675 10.075L18.95 6.225C19.475 5.975 20.025 6.525 19.775 7.05L15.925 15.325C15.8 15.5875 15.5875 15.8 15.325 15.925Z" fill="black"/>
</svg>
