<svg width="30" height="30" viewBox="0 0 30 30" fill="none" xmlns="http://www.w3.org/2000/svg">
<path d="M18.75 10C18.75 8.225 18.125 6.5875 17.0875 5.3C17.6125 5.125 18.1625 5 18.75 5C21.5125 5 23.75 7.2375 23.75 10C23.75 12.7625 21.5125 15 18.75 15C18.2125 15 17.7 14.8875 17.2125 14.7375C17.175 14.725 17.1375 14.7125 17.0875 14.7C18.125 13.4125 18.75 11.775 18.75 10ZM20.825 16.4125C22.5375 17.575 23.75 19.15 23.75 21.25V25H28.75V21.25C28.75 18.525 24.275 16.9125 20.825 16.4125ZM11.25 5C14.0125 5 16.25 7.2375 16.25 10C16.25 12.7625 14.0125 15 11.25 15C8.4875 15 6.25 12.7625 6.25 10C6.25 7.2375 8.4875 5 11.25 5ZM11.25 16.25C14.5875 16.25 21.25 17.925 21.25 21.25V25H1.25V21.25C1.25 17.925 7.9125 16.25 11.25 16.25Z" fill="black"/>
<path d="M20.8375 16.4125C22.55 17.575 23.75 19.15 23.75 21.25V25H28.75V21.25C28.75 18.525 24.2875 16.9125 20.8375 16.4125Z" fill="black"/>
<path d="M11.25 15C14.0114 15 16.25 12.7614 16.25 10C16.25 7.23858 14.0114 5 11.25 5C8.48858 5 6.25 7.23858 6.25 10C6.25 12.7614 8.48858 15 11.25 15Z" fill="black"/>
<path d="M18.75 15C21.5125 15 23.75 12.7625 23.75 10C23.75 7.2375 21.5125 5 18.75 5C18.1625 5 17.6125 5.125 17.0875 5.3C18.125 6.5875 18.75 8.225 18.75 10C18.75 11.775 18.125 13.4125 17.0875 14.7C17.6125 14.875 18.1625 15 18.75 15Z" fill="black"/>
<path d="M11.25 16.25C7.9125 16.25 1.25 17.925 1.25 21.25V25H21.25V21.25C21.25 17.925 14.5875 16.25 11.25 16.25Z" fill="black"/>
</svg>
