<svg width="24" height="24" viewBox="0 0 24 24" fill="none" xmlns="http://www.w3.org/2000/svg">
<path style="fill:#606060;" d="M16.0592 2.5H7.9368C4.93455 2.5 2.5 4.93641 2.5 7.94095V16.0587C2.5 19.0632 4.93455 21.4996 7.9368 21.4996H16.0483C19.0506 21.4996 21.4851 19.0632 21.4851 16.0587V7.94095C21.496 4.93641 19.0615 2.5 16.0592 2.5ZM12.0308 16.8672C9.32329 16.8672 7.118 14.6711 7.118 11.9506C7.118 9.24109 9.31238 7.03412 12.0308 7.03412C14.7383 7.03412 16.9435 9.23017 16.9435 11.9506C16.9326 14.6711 14.7383 16.8672 12.0308 16.8672ZM17.0636 8.02835C16.4304 8.02835 15.9173 7.51485 15.9173 6.88116C15.9173 6.24748 16.4304 5.73398 17.0636 5.73398C17.6968 5.73398 18.2099 6.24748 18.2099 6.88116C18.2099 7.51485 17.6968 8.02835 17.0636 8.02835ZM12.0308 8.80407C10.2949 8.80407 8.8866 10.2135 8.8866 11.9506C8.8866 13.6878 10.2949 15.0972 12.0308 15.0972C13.7666 15.0972 15.1749 13.6878 15.1749 11.9506C15.1749 10.2135 13.7666 8.80407 12.0308 8.80407Z" fill="#1C0101"/>
</svg>
