<svg width="48" height="48" viewBox="0 0 48 48" fill="none" xmlns="http://www.w3.org/2000/svg">
<path d="M32.1492 35.0347C32.0255 34.2626 31.7219 33.5159 31.6479 32.6994C31.5918 32.0796 31.7431 32.2214 32.0921 31.8173C32.8959 30.8887 32.9816 31.0632 33.9938 29.4344C37.6142 23.6088 34.4443 15.3887 27.3072 13.3939C17.2425 10.5806 8.55069 21.0747 14.3784 30.0098C15.6645 31.9823 18.0527 33.9295 21.1009 34.6762C23.4108 35.241 29.4501 35.0347 32.1492 35.0347ZM28.9477 22.1947C29.7356 22.1947 30.3745 22.8928 30.3745 23.7537C30.3745 24.6147 29.7356 25.3127 28.9477 25.3127C28.1608 25.3127 27.522 24.6147 27.522 23.7537C27.522 22.8928 28.1608 22.1947 28.9477 22.1947ZM23.9999 22.1947C24.7879 22.1947 25.4257 22.8928 25.4257 23.7537C25.4257 24.6147 24.7879 25.3127 23.9999 25.3127C23.212 25.3127 22.5742 24.6147 22.5742 23.7537C22.5742 22.8928 23.212 22.1947 23.9999 22.1947ZM19.0522 22.1947C19.8391 22.1947 20.4779 22.8928 20.4779 23.7537C20.4779 24.6147 19.8391 25.3127 19.0522 25.3127C18.2642 25.3127 17.6254 24.6147 17.6254 23.7537C17.6254 22.8928 18.2642 22.1947 19.0522 22.1947Z" fill="#606060"/>
<circle cx="36" cy="15" r="6" fill="#FF6B68"/>
</svg>
