<svg width="24" height="26" viewBox="0 0 24 26" fill="none" xmlns="http://www.w3.org/2000/svg">
<path d="M20.75 3H19.5V1.75C19.5 1.0625 18.9375 0.5 18.25 0.5C17.5625 0.5 17 1.0625 17 1.75V3H7V1.75C7 1.0625 6.4375 0.5 5.75 0.5C5.0625 0.5 4.5 1.0625 4.5 1.75V3H3.25C1.875 3 0.75 4.125 0.75 5.5V23C0.75 24.375 1.875 25.5 3.25 25.5H20.75C22.125 25.5 23.25 24.375 23.25 23V5.5C23.25 4.125 22.125 3 20.75 3ZM12 6.75C14.4125 6.75 16.375 8.7125 16.375 11.125C16.375 13.5375 14.4125 15.5 12 15.5C9.5875 15.5 7.625 13.5375 7.625 11.125C7.625 8.7125 9.5875 6.75 12 6.75ZM20.75 23H3.25V22.7125C3.25 21.9375 3.6 21.2125 4.2 20.7375C6.3375 19.025 9.05 18 12 18C14.95 18 17.6625 19.025 19.8 20.7375C20.4 21.2125 20.75 21.95 20.75 22.7125V23Z" fill="black"/>
</svg>
