<svg width="24" height="24" viewBox="0 0 24 24" fill="none" xmlns="http://www.w3.org/2000/svg">
<path style="fill:#606060;" d="M11.9933 2C6.47267 2 2 6.47599 2 11.9987C2 17.5214 6.47267 21.9996 11.9921 21.9996C17.5115 21.9996 21.9844 17.5238 21.9844 11.9987C21.9844 6.47355 17.5117 2 11.9921 2H11.9933ZM16.7126 11.036C15.7948 11.0399 14.8987 10.7571 14.1495 10.2269C14.1495 11.3794 14.1495 12.5299 14.1608 13.6835C14.1608 13.8367 14.1673 13.9903 14.1551 14.1436C14.1154 14.6693 13.9643 15.1805 13.7119 15.6433C13.4595 16.1061 13.1116 16.5099 12.6913 16.8281C12.1768 17.2041 11.5599 17.4143 10.9229 17.4306C10.6019 17.4442 10.2805 17.4181 9.96601 17.3526C9.51094 17.2565 9.08092 17.0665 8.70339 16.7949C8.24051 16.4664 7.86626 16.0283 7.61411 15.5198C7.36197 15.0113 7.23978 14.4482 7.25848 13.8809C7.27718 13.3136 7.43619 12.7598 7.72128 12.2691C8.00637 11.7783 8.40866 11.3658 8.89217 11.0685C9.5666 10.6517 10.3656 10.4838 11.1507 10.594C11.1532 10.7405 11.1473 10.887 11.1541 11.0306C11.1654 11.2143 11.1541 11.3969 11.1585 11.5786V12.5101C10.9207 12.4331 10.6659 12.4254 10.4239 12.4879C10.136 12.5545 9.85929 12.6779 9.6324 12.8691C9.49319 12.986 9.3787 13.1296 9.29562 13.2913C9.15744 13.5677 9.1019 13.878 9.13566 14.1852C9.17128 14.4829 9.29521 14.7632 9.49149 14.9899C9.62638 15.1432 9.78513 15.2737 9.96162 15.3765C10.4364 15.6451 11.0552 15.6165 11.5144 15.322C11.7357 15.1824 11.9187 14.9897 12.0466 14.7615C12.1746 14.5332 12.2434 14.2766 12.247 14.0149V9.2835C12.2536 8.37868 12.247 7.47508 12.2514 6.5727H14.1166C14.1144 6.73184 14.1282 6.8908 14.1576 7.04721H14.1688C14.2177 7.3095 14.3153 7.56007 14.4355 7.79964C14.6255 8.16768 14.9047 8.49664 15.2602 8.71326C15.2808 8.72794 15.2994 8.74517 15.3157 8.76454C15.5773 8.92854 15.8648 9.04688 16.1661 9.1145C16.3429 9.15059 16.5228 9.16964 16.7033 9.17141C16.7033 9.30914 16.7033 9.44688 16.7055 9.58486C16.7134 10.0682 16.7077 10.5517 16.7112 11.0375L16.7126 11.036Z" fill="#1C0101"/>
</svg>
