<svg width="24" height="24" viewBox="0 0 24 24" fill="none" xmlns="http://www.w3.org/2000/svg">
<path style="fill:#606060;" d="M15.8937 8.48381C16.1462 8.48381 16.3955 8.50225 16.6435 8.52979C15.9699 5.41163 12.6157 3.09525 8.78683 3.09525C4.50657 3.09525 1 5.99474 1 9.67657C1 11.8018 2.16651 13.547 4.11623 14.9006L3.33747 17.2286L6.05896 15.8719C7.03351 16.0636 7.81476 16.2604 8.7868 16.2604C9.03104 16.2604 9.27342 16.2485 9.5139 16.2297C9.36155 15.7123 9.27342 15.1705 9.27342 14.6084C9.27347 11.2275 12.1946 8.48381 15.8937 8.48381ZM11.7066 6.38573C12.2928 6.38573 12.6812 6.76893 12.6812 7.35138C12.6812 7.93138 12.2928 8.31985 11.7066 8.31985C11.123 8.31985 10.5376 7.93135 10.5376 7.35138C10.5376 6.76893 11.1231 6.38573 11.7066 6.38573ZM6.25732 8.31988C5.67369 8.31988 5.08446 7.93138 5.08446 7.3514C5.08446 6.76896 5.67372 6.38576 6.25732 6.38576C6.84089 6.38576 7.22933 6.76896 7.22933 7.3514C7.22933 7.93138 6.84089 8.31988 6.25732 8.31988ZM23 14.5152C23 11.4215 19.8851 8.89952 16.3861 8.89952C12.6812 8.89952 9.76326 11.4215 9.76326 14.5152C9.76326 17.6146 12.6812 20.1308 16.3861 20.1308C17.1616 20.1308 17.9442 19.9362 18.7229 19.7423L20.8583 20.9048L20.2728 18.971C21.836 17.8057 23 16.2604 23 14.5152ZM14.2393 13.547C13.8515 13.547 13.4599 13.1639 13.4599 12.7728C13.4599 12.3871 13.8515 11.9989 14.2393 11.9989C14.8279 11.9989 15.2138 12.3872 15.2138 12.7728C15.2138 13.1639 14.8279 13.547 14.2393 13.547ZM18.5221 13.547C18.1368 13.547 17.7484 13.1639 17.7484 12.7728C17.7484 12.3871 18.1368 11.9989 18.5221 11.9989C19.1057 11.9989 19.4966 12.3872 19.4966 12.7728C19.4966 13.1639 19.1057 13.547 18.5221 13.547Z" fill="#1C0101"/>
</svg>
